<svg xmlns="http://www.w3.org/2000/svg" xmlns:xlink="http://www.w3.org/1999/xlink" width="1080" zoomAndPan="magnify" viewBox="0 0 810 809.999993" height="1080" preserveAspectRatio="xMidYMid meet" version="1.0"><defs><clipPath id="c65e91c017"><path d="M 271.332031 758.027344 L 514.378906 758.027344 L 514.378906 788.96875 L 271.332031 788.96875 Z M 271.332031 758.027344 " clip-rule="nonzero"/></clipPath><clipPath id="bb77eea7d6"><path d="M 286.800781 758.027344 L 498.863281 758.027344 C 507.40625 758.027344 514.332031 764.953125 514.332031 773.496094 C 514.332031 782.042969 507.40625 788.96875 498.863281 788.96875 L 286.800781 788.96875 C 278.257812 788.96875 271.332031 782.042969 271.332031 773.496094 C 271.332031 764.953125 278.257812 758.027344 286.800781 758.027344 Z M 286.800781 758.027344 " clip-rule="nonzero"/></clipPath></defs><path fill="#000000" d="M 419.273438 594.265625 L 419.273438 637.296875 L 455.773438 650.679688 L 455.773438 607.644531 Z M 419.273438 510.265625 L 419.273438 553.300781 L 455.773438 566.683594 L 455.773438 523.648438 Z M 601.574219 460.285156 L 521.390625 512.398438 L 521.390625 727.507812 C 548.648438 730.578125 575.425781 734.726562 601.574219 739.941406 Z M 419.273438 426.332031 L 419.273438 469.304688 L 455.773438 482.695312 L 455.773438 439.714844 Z M 191.644531 414.265625 L 111.421875 466.375 L 111.421875 764.675781 C 137.066406 756.445312 163.90625 749.324219 191.644531 743.378906 Z M 491.894531 369.015625 L 491.894531 411.988281 L 528.40625 425.382812 L 528.40625 382.410156 Z M 419.273438 342.34375 L 419.273438 385.378906 L 455.773438 398.769531 L 455.773438 355.738281 Z M 491.894531 285.019531 L 491.894531 328.0625 L 528.40625 341.394531 L 528.40625 298.421875 Z M 419.273438 258.367188 L 419.273438 301.390625 L 455.773438 314.773438 L 455.773438 271.738281 Z M 491.894531 201.042969 L 491.894531 244.078125 L 528.40625 257.460938 L 528.40625 214.425781 Z M 419.273438 174.371094 L 419.273438 217.402344 L 455.773438 230.785156 L 455.773438 187.753906 Z M 370.816406 133.152344 L 290.589844 185.265625 L 290.589844 727.230469 C 317.042969 724.414062 343.832031 722.550781 370.816406 721.765625 Z M 387.597656 102.113281 L 559.53125 165.167969 L 559.53125 431.011719 L 479.898438 482.796875 L 479.898438 723.886719 C 488.070312 724.363281 496.3125 724.996094 504.496094 725.703125 L 504.496094 503.25 L 618.414062 429.257812 L 715.433594 492.324219 L 715.433594 770.152344 C 749.484375 781.953125 781.160156 795.601562 809.835938 810.953125 L 0.164062 810.953125 C 28.851562 795.714844 60.527344 782.117188 94.527344 770.429688 L 94.527344 457.257812 L 208.449219 383.246094 L 273.738281 425.636719 L 273.738281 176.175781 Z M 387.597656 102.113281 " fill-opacity="1" fill-rule="evenodd"/><g clip-path="url(#c65e91c017)"><g clip-path="url(#bb77eea7d6)"><path fill="#000000" d="M 271.332031 758.027344 L 514.378906 758.027344 L 514.378906 788.96875 L 271.332031 788.96875 Z M 271.332031 758.027344 " fill-opacity="1" fill-rule="nonzero"/></g></g></svg>