<svg xmlns="http://www.w3.org/2000/svg" xmlns:xlink="http://www.w3.org/1999/xlink" width="1080" zoomAndPan="magnify" viewBox="0 0 810 809.999993" height="1080" preserveAspectRatio="xMidYMid meet" version="1.0"><defs><clipPath id="81d1d85eff"><path d="M 200 339 L 614 339 L 614 749 L 200 749 Z M 200 339 " clip-rule="nonzero"/></clipPath><clipPath id="578e6f97f3"><path d="M -140.710938 695.648438 L 70.320312 -95.695312 L 858.769531 114.5625 L 647.738281 905.90625 Z M -140.710938 695.648438 " clip-rule="nonzero"/></clipPath><clipPath id="511f1a4c20"><path d="M 648.066406 905.996094 L 859.097656 114.648438 L 70.648438 -95.609375 L -140.378906 695.738281 Z M 648.066406 905.996094 " clip-rule="nonzero"/></clipPath><clipPath id="952542f58f"><path d="M 648.066406 905.996094 L 859.097656 114.648438 L 70.648438 -95.609375 L -140.378906 695.738281 Z M 648.066406 905.996094 " clip-rule="nonzero"/></clipPath><clipPath id="af042ad9bb"><path d="M 380 517 L 433 517 L 433 571 L 380 571 Z M 380 517 " clip-rule="nonzero"/></clipPath><clipPath id="8e15d43beb"><path d="M -140.710938 695.648438 L 70.320312 -95.695312 L 858.769531 114.5625 L 647.738281 905.90625 Z M -140.710938 695.648438 " clip-rule="nonzero"/></clipPath><clipPath id="7b83685d30"><path d="M 648.066406 905.996094 L 859.097656 114.648438 L 70.648438 -95.609375 L -140.378906 695.738281 Z M 648.066406 905.996094 " clip-rule="nonzero"/></clipPath><clipPath id="9998f79855"><path d="M 648.066406 905.996094 L 859.097656 114.648438 L 70.648438 -95.609375 L -140.378906 695.738281 Z M 648.066406 905.996094 " clip-rule="nonzero"/></clipPath><clipPath id="75fb1d0d6e"><path d="M 488 115 L 734 115 L 734 358 L 488 358 Z M 488 115 " clip-rule="nonzero"/></clipPath><clipPath id="ca6c3b300c"><path d="M -140.710938 695.648438 L 70.320312 -95.695312 L 858.769531 114.5625 L 647.738281 905.90625 Z M -140.710938 695.648438 " clip-rule="nonzero"/></clipPath><clipPath id="9fda798c15"><path d="M 648.066406 905.996094 L 859.097656 114.648438 L 70.648438 -95.609375 L -140.378906 695.738281 Z M 648.066406 905.996094 " clip-rule="nonzero"/></clipPath><clipPath id="d2b21f6be7"><path d="M 648.066406 905.996094 L 859.097656 114.648438 L 70.648438 -95.609375 L -140.378906 695.738281 Z M 648.066406 905.996094 " clip-rule="nonzero"/></clipPath><clipPath id="59eaadb2ae"><path d="M 595 221 L 627 221 L 627 253 L 595 253 Z M 595 221 " clip-rule="nonzero"/></clipPath><clipPath id="831d1dada9"><path d="M -140.710938 695.648438 L 70.320312 -95.695312 L 858.769531 114.5625 L 647.738281 905.90625 Z M -140.710938 695.648438 " clip-rule="nonzero"/></clipPath><clipPath id="8334faf9ec"><path d="M 648.066406 905.996094 L 859.097656 114.648438 L 70.648438 -95.609375 L -140.378906 695.738281 Z M 648.066406 905.996094 " clip-rule="nonzero"/></clipPath><clipPath id="c3ba8591b9"><path d="M 648.066406 905.996094 L 859.097656 114.648438 L 70.648438 -95.609375 L -140.378906 695.738281 Z M 648.066406 905.996094 " clip-rule="nonzero"/></clipPath><clipPath id="9adc9949bd"><path d="M 96 20 L 401 20 L 401 323 L 96 323 Z M 96 20 " clip-rule="nonzero"/></clipPath><clipPath id="1518b56c8f"><path d="M -140.710938 695.648438 L 70.320312 -95.695312 L 858.769531 114.5625 L 647.738281 905.90625 Z M -140.710938 695.648438 " clip-rule="nonzero"/></clipPath><clipPath id="4d79715367"><path d="M 648.066406 905.996094 L 859.097656 114.648438 L 70.648438 -95.609375 L -140.378906 695.738281 Z M 648.066406 905.996094 " clip-rule="nonzero"/></clipPath><clipPath id="be98612edf"><path d="M 648.066406 905.996094 L 859.097656 114.648438 L 70.648438 -95.609375 L -140.378906 695.738281 Z M 648.066406 905.996094 " clip-rule="nonzero"/></clipPath><clipPath id="5f1269b05e"><path d="M 229 152 L 269 152 L 269 192 L 229 192 Z M 229 152 " clip-rule="nonzero"/></clipPath><clipPath id="e7fca63cdd"><path d="M -140.710938 695.648438 L 70.320312 -95.695312 L 858.769531 114.5625 L 647.738281 905.90625 Z M -140.710938 695.648438 " clip-rule="nonzero"/></clipPath><clipPath id="a9e8c420aa"><path d="M 648.066406 905.996094 L 859.097656 114.648438 L 70.648438 -95.609375 L -140.378906 695.738281 Z M 648.066406 905.996094 " clip-rule="nonzero"/></clipPath><clipPath id="3568485960"><path d="M 648.066406 905.996094 L 859.097656 114.648438 L 70.648438 -95.609375 L -140.378906 695.738281 Z M 648.066406 905.996094 " clip-rule="nonzero"/></clipPath></defs><g clip-path="url(#81d1d85eff)"><g clip-path="url(#578e6f97f3)"><g clip-path="url(#511f1a4c20)"><g clip-path="url(#952542f58f)"><path fill="#cc7d7c" d="M 407.492188 546.953125 C 328.613281 226.601562 92.972656 452.835938 409.820312 544.710938 C 92.972656 452.835938 171.046875 770.027344 409.039062 541.554688 C 171.03125 770.078125 484.800781 861.023438 405.929688 540.753906 C 484.800781 861.023438 720.441406 634.789062 403.617188 542.839844 C 720.464844 634.714844 642.398438 317.496094 404.402344 545.96875 C 642.378906 317.570312 328.613281 226.601562 407.492188 546.953125 Z M 407.492188 546.953125 " fill-opacity="1" fill-rule="nonzero"/></g></g></g></g><g clip-path="url(#af042ad9bb)"><g clip-path="url(#8e15d43beb)"><g clip-path="url(#7b83685d30)"><g clip-path="url(#9998f79855)"><path fill="#fbdcd9" d="M 413.46875 518.460938 C 412.640625 518.238281 411.800781 518.058594 410.953125 517.917969 C 410.105469 517.78125 409.253906 517.683594 408.394531 517.628906 C 407.539062 517.574219 406.679688 517.558594 405.824219 517.589844 C 404.964844 517.617188 404.109375 517.691406 403.257812 517.804688 C 402.40625 517.917969 401.5625 518.070312 400.726562 518.265625 C 399.890625 518.460938 399.066406 518.699219 398.253906 518.976562 C 397.441406 519.253906 396.640625 519.570312 395.859375 519.925781 C 395.078125 520.28125 394.316406 520.671875 393.574219 521.105469 C 392.828125 521.535156 392.109375 522 391.410156 522.5 C 390.714844 523.003906 390.042969 523.535156 389.398438 524.101562 C 388.75 524.671875 388.136719 525.269531 387.550781 525.894531 C 386.964844 526.523438 386.410156 527.179688 385.886719 527.859375 C 385.363281 528.542969 384.878906 529.246094 384.425781 529.976562 C 383.972656 530.707031 383.554688 531.457031 383.175781 532.230469 C 382.796875 533 382.457031 533.789062 382.15625 534.589844 C 381.855469 535.394531 381.59375 536.210938 381.371094 537.042969 C 381.152344 537.871094 380.972656 538.710938 380.832031 539.558594 C 380.691406 540.40625 380.597656 541.257812 380.539062 542.117188 C 380.484375 542.972656 380.472656 543.832031 380.5 544.691406 C 380.53125 545.546875 380.601562 546.402344 380.714844 547.253906 C 380.828125 548.105469 380.984375 548.949219 381.179688 549.785156 C 381.375 550.621094 381.613281 551.445312 381.886719 552.257812 C 382.164062 553.074219 382.480469 553.871094 382.835938 554.652344 C 383.191406 555.433594 383.585938 556.195312 384.015625 556.941406 C 384.445312 557.683594 384.910156 558.402344 385.414062 559.101562 C 385.914062 559.800781 386.449219 560.46875 387.015625 561.117188 C 387.582031 561.761719 388.179688 562.375 388.808594 562.960938 C 389.433594 563.550781 390.089844 564.101562 390.773438 564.625 C 391.453125 565.148438 392.160156 565.632812 392.890625 566.085938 C 393.621094 566.539062 394.371094 566.957031 395.140625 567.335938 C 395.910156 567.714844 396.699219 568.054688 397.503906 568.355469 C 398.308594 568.65625 399.125 568.917969 399.953125 569.140625 C 400.785156 569.363281 401.621094 569.542969 402.46875 569.679688 C 403.316406 569.820312 404.171875 569.917969 405.027344 569.972656 C 405.882812 570.027344 406.742188 570.039062 407.601562 570.011719 C 408.460938 569.980469 409.3125 569.910156 410.164062 569.796875 C 411.015625 569.683594 411.859375 569.53125 412.695312 569.332031 C 413.53125 569.136719 414.359375 568.902344 415.171875 568.625 C 415.984375 568.347656 416.78125 568.03125 417.5625 567.675781 C 418.34375 567.320312 419.109375 566.925781 419.851562 566.496094 C 420.59375 566.066406 421.316406 565.601562 422.011719 565.097656 C 422.710938 564.597656 423.382812 564.0625 424.027344 563.496094 C 424.671875 562.929688 425.285156 562.332031 425.875 561.703125 C 426.460938 561.078125 427.015625 560.421875 427.535156 559.738281 C 428.058594 559.058594 428.546875 558.351562 429 557.621094 C 429.449219 556.890625 429.867188 556.140625 430.246094 555.371094 C 430.625 554.601562 430.964844 553.8125 431.265625 553.007812 C 431.566406 552.203125 431.828125 551.386719 432.050781 550.558594 C 432.273438 549.726562 432.453125 548.886719 432.589844 548.039062 C 432.730469 547.195312 432.828125 546.339844 432.882812 545.484375 C 432.9375 544.625 432.949219 543.769531 432.921875 542.910156 C 432.890625 542.050781 432.820312 541.195312 432.707031 540.347656 C 432.59375 539.496094 432.441406 538.652344 432.246094 537.8125 C 432.046875 536.976562 431.8125 536.152344 431.535156 535.339844 C 431.257812 534.527344 430.941406 533.730469 430.585938 532.949219 C 430.230469 532.164062 429.835938 531.402344 429.40625 530.660156 C 428.976562 529.917969 428.511719 529.195312 428.011719 528.5 C 427.507812 527.800781 426.976562 527.128906 426.40625 526.484375 C 425.839844 525.839844 425.242188 525.222656 424.617188 524.636719 C 423.988281 524.050781 423.332031 523.496094 422.652344 522.976562 C 421.96875 522.453125 421.261719 521.964844 420.535156 521.511719 C 419.804688 521.058594 419.054688 520.644531 418.28125 520.265625 C 417.511719 519.886719 416.722656 519.546875 415.921875 519.246094 C 415.117188 518.941406 414.300781 518.679688 413.46875 518.460938 Z M 413.46875 518.460938 " fill-opacity="1" fill-rule="nonzero"/></g></g></g></g><g clip-path="url(#75fb1d0d6e)"><g clip-path="url(#ca6c3b300c)"><g clip-path="url(#9fda798c15)"><g clip-path="url(#d2b21f6be7)"><path fill="#ddd4d4" d="M 611.707031 238.5625 C 565.007812 48.738281 425.339844 182.808594 613.089844 237.226562 C 425.339844 182.808594 471.617188 370.761719 612.636719 235.378906 C 471.609375 370.789062 657.523438 424.691406 610.792969 234.886719 C 657.484375 424.734375 797.152344 290.667969 609.410156 236.21875 C 797.152344 290.667969 750.882812 102.6875 609.855469 238.097656 C 750.894531 102.636719 564.980469 48.734375 611.707031 238.5625 Z M 611.707031 238.5625 " fill-opacity="1" fill-rule="nonzero"/></g></g></g></g><g clip-path="url(#59eaadb2ae)"><g clip-path="url(#831d1dada9)"><g clip-path="url(#8334faf9ec)"><g clip-path="url(#c3ba8591b9)"><path fill="#fbdcd9" d="M 615.257812 221.695312 C 614.273438 221.433594 613.269531 221.265625 612.25 221.203125 C 611.234375 221.136719 610.21875 221.171875 609.207031 221.304688 C 608.195312 221.441406 607.207031 221.671875 606.238281 222 C 605.273438 222.328125 604.347656 222.75 603.464844 223.261719 C 602.582031 223.773438 601.757812 224.367188 600.992188 225.039062 C 600.226562 225.714844 599.53125 226.453125 598.910156 227.265625 C 598.292969 228.074219 597.757812 228.9375 597.304688 229.855469 C 596.855469 230.769531 596.5 231.722656 596.234375 232.707031 C 595.972656 233.695312 595.808594 234.695312 595.742188 235.714844 C 595.679688 236.734375 595.710938 237.746094 595.847656 238.757812 C 595.980469 239.769531 596.214844 240.757812 596.542969 241.726562 C 596.871094 242.691406 597.292969 243.617188 597.804688 244.5 C 598.3125 245.382812 598.90625 246.207031 599.582031 246.972656 C 600.253906 247.738281 600.996094 248.433594 601.804688 249.054688 C 602.617188 249.675781 603.480469 250.210938 604.394531 250.660156 C 605.3125 251.109375 606.261719 251.464844 607.25 251.730469 C 608.234375 251.992188 609.238281 252.15625 610.253906 252.222656 C 611.273438 252.289062 612.289062 252.253906 613.300781 252.117188 C 614.3125 251.984375 615.300781 251.753906 616.265625 251.421875 C 617.230469 251.09375 618.15625 250.671875 619.039062 250.164062 C 619.921875 249.652344 620.746094 249.058594 621.515625 248.386719 C 622.28125 247.710938 622.972656 246.96875 623.59375 246.160156 C 624.214844 245.347656 624.75 244.484375 625.199219 243.570312 C 625.648438 242.652344 626.007812 241.703125 626.269531 240.714844 C 626.53125 239.730469 626.695312 238.726562 626.761719 237.710938 C 626.828125 236.691406 626.792969 235.675781 626.660156 234.664062 C 626.523438 233.652344 626.292969 232.664062 625.964844 231.699219 C 625.636719 230.734375 625.214844 229.808594 624.703125 228.925781 C 624.191406 228.042969 623.597656 227.21875 622.925781 226.449219 C 622.253906 225.683594 621.511719 224.992188 620.699219 224.371094 C 619.890625 223.75 619.027344 223.214844 618.109375 222.765625 C 617.195312 222.3125 616.242188 221.957031 615.257812 221.695312 Z M 615.257812 221.695312 " fill-opacity="1" fill-rule="nonzero"/></g></g></g></g><g clip-path="url(#9adc9949bd)"><g clip-path="url(#1518b56c8f)"><g clip-path="url(#4d79715367)"><g clip-path="url(#be98612edf)"><path fill="#f9afa6" d="M 249.25 174.074219 C 191.074219 -62.222656 17.242188 104.664062 250.960938 172.421875 C 17.234375 104.6875 74.851562 338.625 250.386719 170.109375 C 74.851562 338.625 306.28125 405.746094 248.089844 169.496094 C 306.265625 405.796875 480.097656 238.90625 246.378906 171.148438 C 480.105469 238.882812 422.496094 4.921875 246.953125 173.464844 C 422.507812 4.871094 190.972656 -62.25 249.25 174.074219 Z M 249.25 174.074219 " fill-opacity="1" fill-rule="nonzero"/></g></g></g></g><g clip-path="url(#5f1269b05e)"><g clip-path="url(#e7fca63cdd)"><g clip-path="url(#a9e8c420aa)"><g clip-path="url(#3568485960)"><path fill="#fbdcd9" d="M 253.65625 153.082031 C 253.046875 152.921875 252.425781 152.789062 251.800781 152.683594 C 251.179688 152.582031 250.550781 152.511719 249.917969 152.472656 C 249.285156 152.429688 248.652344 152.421875 248.019531 152.441406 C 247.386719 152.464844 246.757812 152.515625 246.132812 152.597656 C 245.503906 152.683594 244.882812 152.796875 244.265625 152.941406 C 243.648438 153.085938 243.042969 153.261719 242.441406 153.464844 C 241.84375 153.667969 241.253906 153.902344 240.679688 154.164062 C 240.101562 154.425781 239.539062 154.714844 238.992188 155.03125 C 238.445312 155.347656 237.914062 155.691406 237.398438 156.0625 C 236.886719 156.429688 236.390625 156.824219 235.914062 157.242188 C 235.4375 157.660156 234.984375 158.101562 234.554688 158.5625 C 234.121094 159.027344 233.710938 159.507812 233.328125 160.011719 C 232.941406 160.515625 232.582031 161.035156 232.25 161.574219 C 231.917969 162.109375 231.609375 162.664062 231.332031 163.230469 C 231.050781 163.800781 230.800781 164.378906 230.578125 164.972656 C 230.355469 165.566406 230.164062 166.167969 230 166.78125 C 229.835938 167.390625 229.703125 168.011719 229.601562 168.632812 C 229.5 169.257812 229.429688 169.886719 229.386719 170.519531 C 229.347656 171.152344 229.335938 171.785156 229.359375 172.417969 C 229.378906 173.050781 229.433594 173.679688 229.515625 174.308594 C 229.597656 174.933594 229.714844 175.554688 229.859375 176.171875 C 230.003906 176.789062 230.175781 177.398438 230.378906 177.996094 C 230.585938 178.59375 230.816406 179.183594 231.078125 179.757812 C 231.34375 180.335938 231.632812 180.898438 231.949219 181.445312 C 232.265625 181.992188 232.609375 182.523438 232.976562 183.039062 C 233.347656 183.550781 233.742188 184.046875 234.160156 184.523438 C 234.578125 185 235.015625 185.453125 235.480469 185.882812 C 235.941406 186.316406 236.425781 186.726562 236.929688 187.109375 C 237.429688 187.496094 237.949219 187.855469 238.488281 188.1875 C 239.027344 188.519531 239.578125 188.828125 240.148438 189.105469 C 240.714844 189.386719 241.296875 189.636719 241.890625 189.859375 C 242.480469 190.082031 243.085938 190.273438 243.695312 190.4375 C 244.308594 190.601562 244.925781 190.734375 245.550781 190.835938 C 246.175781 190.9375 246.804688 191.007812 247.433594 191.050781 C 248.066406 191.089844 248.699219 191.101562 249.332031 191.078125 C 249.964844 191.058594 250.59375 191.003906 251.222656 190.921875 C 251.851562 190.839844 252.472656 190.722656 253.089844 190.578125 C 253.703125 190.433594 254.3125 190.261719 254.910156 190.058594 C 255.511719 189.851562 256.097656 189.621094 256.675781 189.359375 C 257.25 189.097656 257.8125 188.804688 258.359375 188.488281 C 258.910156 188.171875 259.441406 187.828125 259.953125 187.460938 C 260.46875 187.089844 260.964844 186.695312 261.4375 186.277344 C 261.914062 185.859375 262.367188 185.417969 262.800781 184.957031 C 263.230469 184.496094 263.640625 184.011719 264.023438 183.507812 C 264.410156 183.007812 264.769531 182.484375 265.101562 181.949219 C 265.4375 181.410156 265.742188 180.855469 266.023438 180.289062 C 266.300781 179.722656 266.550781 179.140625 266.773438 178.546875 C 266.996094 177.953125 267.191406 177.351562 267.351562 176.742188 C 267.515625 176.128906 267.648438 175.511719 267.75 174.886719 C 267.855469 174.261719 267.925781 173.632812 267.964844 173 C 268.007812 172.371094 268.015625 171.738281 267.996094 171.105469 C 267.972656 170.472656 267.921875 169.84375 267.835938 169.214844 C 267.753906 168.585938 267.640625 167.964844 267.496094 167.347656 C 267.351562 166.730469 267.175781 166.125 266.972656 165.527344 C 266.769531 164.925781 266.535156 164.339844 266.273438 163.761719 C 266.011719 163.1875 265.722656 162.625 265.40625 162.074219 C 265.085938 161.527344 264.746094 160.996094 264.375 160.484375 C 264.003906 159.96875 263.613281 159.472656 263.195312 159 C 262.777344 158.523438 262.335938 158.070312 261.875 157.636719 C 261.410156 157.203125 260.929688 156.796875 260.425781 156.410156 C 259.921875 156.027344 259.402344 155.667969 258.863281 155.332031 C 258.328125 155 257.773438 154.695312 257.207031 154.414062 C 256.636719 154.136719 256.054688 153.882812 255.464844 153.660156 C 254.871094 153.441406 254.269531 153.246094 253.65625 153.082031 Z M 253.65625 153.082031 " fill-opacity="1" fill-rule="nonzero"/></g></g></g></g></svg>