<svg xmlns="http://www.w3.org/2000/svg" xmlns:xlink="http://www.w3.org/1999/xlink" width="1080" zoomAndPan="magnify" viewBox="0 0 810 809.999993" height="1080" preserveAspectRatio="xMidYMid meet" version="1.0"><path fill="#ffc7c7" d="M 463.390625 303.738281 C 638.765625 0.00390625 171.097656 0.00390625 346.472656 303.738281 C 171.097656 0.00390625 -62.738281 404.980469 288.015625 404.980469 C -62.738281 404.980469 171.097656 809.957031 346.472656 506.226562 C 171.097656 809.960938 638.765625 809.960938 463.390625 506.226562 C 638.765625 809.960938 872.597656 404.980469 521.847656 404.980469 C 872.601562 404.980469 638.765625 0.00390625 463.390625 303.738281 Z M 463.390625 303.738281 " fill-opacity="1" fill-rule="nonzero"/><path fill="#ff8888" d="M 490.054688 404.980469 C 490.054688 406.375 490.019531 407.765625 489.953125 409.160156 C 489.882812 410.550781 489.78125 411.9375 489.644531 413.324219 C 489.507812 414.710938 489.335938 416.09375 489.132812 417.472656 C 488.929688 418.847656 488.691406 420.222656 488.417969 421.585938 C 488.148438 422.953125 487.839844 424.3125 487.503906 425.664062 C 487.164062 427.015625 486.792969 428.355469 486.386719 429.6875 C 485.984375 431.023438 485.546875 432.34375 485.078125 433.65625 C 484.609375 434.96875 484.109375 436.265625 483.574219 437.554688 C 483.042969 438.839844 482.476562 440.113281 481.882812 441.375 C 481.285156 442.632812 480.660156 443.875 480.003906 445.105469 C 479.347656 446.332031 478.660156 447.542969 477.945312 448.738281 C 477.226562 449.933594 476.480469 451.109375 475.707031 452.269531 C 474.933594 453.425781 474.132812 454.566406 473.300781 455.683594 C 472.472656 456.804688 471.617188 457.902344 470.730469 458.976562 C 469.847656 460.054688 468.9375 461.109375 468.003906 462.140625 C 467.066406 463.171875 466.105469 464.183594 465.121094 465.167969 C 464.136719 466.152344 463.128906 467.113281 462.097656 468.046875 C 461.0625 468.984375 460.007812 469.894531 458.933594 470.777344 C 457.855469 471.660156 456.757812 472.515625 455.640625 473.347656 C 454.519531 474.175781 453.382812 474.976562 452.222656 475.753906 C 451.066406 476.527344 449.886719 477.269531 448.695312 477.988281 C 447.5 478.703125 446.285156 479.390625 445.058594 480.046875 C 443.828125 480.703125 442.585938 481.328125 441.328125 481.925781 C 440.066406 482.519531 438.792969 483.085938 437.507812 483.617188 C 436.21875 484.152344 434.921875 484.652344 433.609375 485.121094 C 432.296875 485.589844 430.976562 486.027344 429.640625 486.429688 C 428.308594 486.835938 426.964844 487.207031 425.613281 487.546875 C 424.261719 487.882812 422.90625 488.1875 421.539062 488.460938 C 420.171875 488.734375 418.800781 488.972656 417.421875 489.175781 C 416.042969 489.378906 414.660156 489.550781 413.277344 489.6875 C 411.890625 489.824219 410.5 489.925781 409.109375 489.992188 C 407.71875 490.0625 406.324219 490.097656 404.933594 490.097656 C 403.539062 490.097656 402.148438 490.0625 400.753906 489.992188 C 399.363281 489.925781 397.976562 489.824219 396.589844 489.6875 C 395.203125 489.550781 393.820312 489.378906 392.441406 489.175781 C 391.0625 488.972656 389.691406 488.734375 388.324219 488.460938 C 386.960938 488.1875 385.601562 487.882812 384.25 487.546875 C 382.898438 487.207031 381.554688 486.835938 380.222656 486.429688 C 378.890625 486.027344 377.566406 485.589844 376.253906 485.121094 C 374.945312 484.652344 373.644531 484.152344 372.355469 483.617188 C 371.070312 483.085938 369.796875 482.519531 368.539062 481.925781 C 367.277344 481.328125 366.035156 480.703125 364.804688 480.046875 C 363.578125 479.390625 362.367188 478.703125 361.171875 477.988281 C 359.976562 477.269531 358.800781 476.527344 357.640625 475.753906 C 356.480469 474.976562 355.34375 474.175781 354.226562 473.347656 C 353.105469 472.515625 352.007812 471.660156 350.929688 470.777344 C 349.855469 469.894531 348.800781 468.984375 347.765625 468.046875 C 346.734375 467.113281 345.726562 466.152344 344.742188 465.167969 C 343.757812 464.183594 342.796875 463.171875 341.859375 462.140625 C 340.925781 461.109375 340.015625 460.054688 339.132812 458.976562 C 338.246094 457.902344 337.390625 456.804688 336.5625 455.683594 C 335.730469 454.566406 334.929688 453.425781 334.15625 452.269531 C 333.382812 451.109375 332.636719 449.933594 331.921875 448.738281 C 331.203125 447.542969 330.519531 446.332031 329.859375 445.105469 C 329.203125 443.875 328.578125 442.632812 327.984375 441.375 C 327.386719 440.113281 326.824219 438.839844 326.289062 437.554688 C 325.757812 436.265625 325.253906 434.96875 324.785156 433.65625 C 324.316406 432.34375 323.878906 431.023438 323.476562 429.6875 C 323.070312 428.355469 322.699219 427.015625 322.359375 425.664062 C 322.023438 424.3125 321.71875 422.953125 321.445312 421.585938 C 321.171875 420.222656 320.9375 418.847656 320.730469 417.472656 C 320.527344 416.09375 320.355469 414.710938 320.21875 413.324219 C 320.082031 411.9375 319.980469 410.550781 319.914062 409.160156 C 319.84375 407.765625 319.808594 406.375 319.808594 404.980469 C 319.808594 403.589844 319.84375 402.195312 319.914062 400.804688 C 319.980469 399.414062 320.082031 398.027344 320.21875 396.640625 C 320.355469 395.253906 320.527344 393.871094 320.730469 392.492188 C 320.9375 391.113281 321.171875 389.742188 321.445312 388.375 C 321.71875 387.011719 322.023438 385.652344 322.359375 384.300781 C 322.699219 382.949219 323.070312 381.609375 323.476562 380.273438 C 323.878906 378.941406 324.316406 377.621094 324.785156 376.308594 C 325.253906 374.996094 325.757812 373.695312 326.289062 372.410156 C 326.824219 371.125 327.386719 369.851562 327.984375 368.589844 C 328.578125 367.332031 329.203125 366.085938 329.859375 364.859375 C 330.519531 363.628906 331.203125 362.417969 331.921875 361.222656 C 332.636719 360.03125 333.382812 358.851562 334.15625 357.695312 C 334.929688 356.535156 335.730469 355.398438 336.5625 354.277344 C 337.390625 353.160156 338.246094 352.0625 339.132812 350.984375 C 340.015625 349.910156 340.925781 348.855469 341.859375 347.824219 C 342.796875 346.789062 343.757812 345.78125 344.742188 344.796875 C 345.726562 343.8125 346.734375 342.851562 347.765625 341.917969 C 348.800781 340.980469 349.855469 340.070312 350.929688 339.1875 C 352.007812 338.304688 353.105469 337.445312 354.226562 336.617188 C 355.34375 335.789062 356.480469 334.984375 357.640625 334.210938 C 358.800781 333.4375 359.976562 332.691406 361.171875 331.976562 C 362.367188 331.261719 363.578125 330.574219 364.804688 329.917969 C 366.035156 329.261719 367.277344 328.636719 368.539062 328.039062 C 369.796875 327.445312 371.070312 326.878906 372.355469 326.347656 C 373.644531 325.8125 374.945312 325.3125 376.253906 324.84375 C 377.566406 324.375 378.890625 323.9375 380.222656 323.53125 C 381.554688 323.128906 382.898438 322.757812 384.25 322.417969 C 385.601562 322.078125 386.960938 321.773438 388.324219 321.503906 C 389.691406 321.230469 391.0625 320.992188 392.441406 320.789062 C 393.820312 320.585938 395.203125 320.414062 396.589844 320.277344 C 397.976562 320.140625 399.363281 320.039062 400.753906 319.96875 C 402.148438 319.902344 403.539062 319.867188 404.933594 319.867188 C 406.324219 319.867188 407.71875 319.902344 409.109375 319.96875 C 410.5 320.039062 411.890625 320.140625 413.277344 320.277344 C 414.660156 320.414062 416.042969 320.585938 417.421875 320.789062 C 418.800781 320.992188 420.171875 321.230469 421.539062 321.503906 C 422.90625 321.773438 424.261719 322.078125 425.613281 322.417969 C 426.964844 322.757812 428.308594 323.128906 429.640625 323.53125 C 430.976562 323.9375 432.296875 324.375 433.609375 324.84375 C 434.921875 325.3125 436.21875 325.8125 437.507812 326.347656 C 438.792969 326.878906 440.066406 327.445312 441.328125 328.039062 C 442.585938 328.636719 443.828125 329.261719 445.058594 329.917969 C 446.285156 330.574219 447.5 331.261719 448.695312 331.976562 C 449.886719 332.691406 451.066406 333.4375 452.222656 334.210938 C 453.382812 334.984375 454.519531 335.789062 455.640625 336.617188 C 456.757812 337.445312 457.855469 338.304688 458.933594 339.1875 C 460.007812 340.070312 461.0625 340.980469 462.097656 341.917969 C 463.128906 342.851562 464.136719 343.8125 465.121094 344.796875 C 466.105469 345.78125 467.066406 346.789062 468.003906 347.824219 C 468.9375 348.855469 469.847656 349.910156 470.730469 350.984375 C 471.617188 352.0625 472.472656 353.160156 473.300781 354.277344 C 474.132812 355.398438 474.933594 356.535156 475.707031 357.695312 C 476.480469 358.851562 477.226562 360.03125 477.945312 361.222656 C 478.660156 362.417969 479.347656 363.628906 480.003906 364.859375 C 480.660156 366.085938 481.285156 367.332031 481.882812 368.589844 C 482.476562 369.851562 483.042969 371.125 483.574219 372.410156 C 484.109375 373.695312 484.609375 374.996094 485.078125 376.308594 C 485.546875 377.621094 485.984375 378.941406 486.386719 380.273438 C 486.792969 381.609375 487.164062 382.949219 487.503906 384.300781 C 487.839844 385.652344 488.148438 387.011719 488.417969 388.375 C 488.691406 389.742188 488.929688 391.113281 489.132812 392.492188 C 489.335938 393.871094 489.507812 395.253906 489.644531 396.640625 C 489.78125 398.027344 489.882812 399.414062 489.953125 400.804688 C 490.019531 402.195312 490.054688 403.589844 490.054688 404.980469 Z M 490.054688 404.980469 " fill-opacity="1" fill-rule="nonzero"/></svg>