<svg xmlns="http://www.w3.org/2000/svg" xmlns:xlink="http://www.w3.org/1999/xlink" width="1080" zoomAndPan="magnify" viewBox="0 0 810 809.999993" height="1080" preserveAspectRatio="xMidYMid meet" version="1.0"><path fill="#fff7d3" d="M 486.792969 476.996094 C 754.230469 711.769531 254.042969 816.023438 369.515625 501.457031 C 254.042969 816.023438 0.238281 372.542969 309.972656 397.402344 C 0.238281 372.542969 343.652344 -5.976562 390.566406 308.585938 C 343.652344 -5.976562 809.761719 203.53125 499.824219 357.707031 C 809.5625 203.734375 754.230469 711.769531 486.792969 476.996094 Z M 486.792969 476.996094 " fill-opacity="1" fill-rule="nonzero"/><path fill="#ffda7b" d="M 483.585938 414.042969 C 483.585938 415.160156 483.558594 416.273438 483.503906 417.390625 C 483.449219 418.503906 483.367188 419.617188 483.257812 420.726562 C 483.148438 421.835938 483.011719 422.941406 482.847656 424.046875 C 482.683594 425.148438 482.496094 426.25 482.277344 427.34375 C 482.058594 428.4375 481.816406 429.523438 481.542969 430.605469 C 481.273438 431.6875 480.976562 432.765625 480.652344 433.832031 C 480.328125 434.898438 479.976562 435.957031 479.601562 437.007812 C 479.226562 438.058594 478.824219 439.097656 478.398438 440.128906 C 477.972656 441.160156 477.519531 442.179688 477.042969 443.1875 C 476.566406 444.199219 476.0625 445.195312 475.539062 446.175781 C 475.011719 447.160156 474.460938 448.132812 473.890625 449.089844 C 473.316406 450.046875 472.71875 450.988281 472.097656 451.914062 C 471.480469 452.84375 470.835938 453.753906 470.171875 454.652344 C 469.507812 455.546875 468.824219 456.425781 468.113281 457.289062 C 467.40625 458.152344 466.679688 458.996094 465.929688 459.820312 C 465.179688 460.648438 464.410156 461.457031 463.621094 462.246094 C 462.832031 463.035156 462.027344 463.800781 461.199219 464.550781 C 460.371094 465.300781 459.527344 466.03125 458.667969 466.738281 C 457.804688 467.445312 456.925781 468.132812 456.027344 468.796875 C 455.132812 469.460938 454.222656 470.101562 453.292969 470.722656 C 452.367188 471.34375 451.421875 471.9375 450.46875 472.511719 C 449.511719 473.085938 448.539062 473.636719 447.554688 474.160156 C 446.570312 474.6875 445.574219 475.1875 444.566406 475.664062 C 443.558594 476.140625 442.539062 476.59375 441.507812 477.019531 C 440.480469 477.449219 439.4375 477.847656 438.386719 478.226562 C 437.335938 478.601562 436.277344 478.949219 435.210938 479.273438 C 434.144531 479.597656 433.070312 479.894531 431.988281 480.167969 C 430.90625 480.4375 429.816406 480.683594 428.722656 480.898438 C 427.628906 481.117188 426.53125 481.308594 425.425781 481.472656 C 424.324219 481.636719 423.214844 481.773438 422.105469 481.882812 C 420.996094 481.992188 419.882812 482.074219 418.769531 482.128906 C 417.65625 482.183594 416.539062 482.210938 415.425781 482.210938 C 414.308594 482.210938 413.195312 482.183594 412.082031 482.128906 C 410.964844 482.074219 409.855469 481.992188 408.742188 481.882812 C 407.632812 481.773438 406.527344 481.636719 405.421875 481.472656 C 404.320312 481.308594 403.222656 481.117188 402.128906 480.898438 C 401.03125 480.683594 399.945312 480.4375 398.863281 480.167969 C 397.78125 479.894531 396.707031 479.597656 395.636719 479.273438 C 394.570312 478.949219 393.511719 478.601562 392.460938 478.226562 C 391.410156 477.847656 390.371094 477.449219 389.339844 477.019531 C 388.308594 476.59375 387.289062 476.140625 386.28125 475.664062 C 385.273438 475.1875 384.277344 474.6875 383.292969 474.160156 C 382.308594 473.636719 381.339844 473.085938 380.382812 472.511719 C 379.425781 471.9375 378.484375 471.34375 377.554688 470.722656 C 376.628906 470.101562 375.714844 469.460938 374.820312 468.796875 C 373.925781 468.132812 373.046875 467.445312 372.183594 466.738281 C 371.320312 466.03125 370.476562 465.300781 369.648438 464.550781 C 368.824219 463.800781 368.015625 463.035156 367.226562 462.246094 C 366.4375 461.457031 365.667969 460.648438 364.921875 459.820312 C 364.171875 458.996094 363.441406 458.152344 362.734375 457.289062 C 362.027344 456.425781 361.339844 455.546875 360.675781 454.652344 C 360.011719 453.753906 359.371094 452.84375 358.75 451.914062 C 358.128906 450.988281 357.535156 450.046875 356.960938 449.089844 C 356.386719 448.132812 355.835938 447.160156 355.3125 446.175781 C 354.785156 445.195312 354.285156 444.199219 353.808594 443.1875 C 353.328125 442.179688 352.878906 441.160156 352.453125 440.128906 C 352.023438 439.097656 351.621094 438.058594 351.246094 437.007812 C 350.871094 435.957031 350.523438 434.898438 350.199219 433.832031 C 349.875 432.765625 349.578125 431.6875 349.304688 430.605469 C 349.035156 429.523438 348.789062 428.4375 348.574219 427.34375 C 348.355469 426.25 348.164062 425.148438 348 424.046875 C 347.835938 422.941406 347.699219 421.835938 347.589844 420.726562 C 347.480469 419.617188 347.398438 418.503906 347.34375 417.390625 C 347.289062 416.273438 347.261719 415.160156 347.261719 414.042969 C 347.261719 412.929688 347.289062 411.8125 347.34375 410.699219 C 347.398438 409.585938 347.480469 408.472656 347.589844 407.363281 C 347.699219 406.253906 347.835938 405.144531 348 404.042969 C 348.164062 402.9375 348.355469 401.839844 348.574219 400.746094 C 348.789062 399.652344 349.035156 398.5625 349.304688 397.480469 C 349.578125 396.398438 349.875 395.324219 350.199219 394.257812 C 350.523438 393.1875 350.871094 392.128906 351.246094 391.078125 C 351.621094 390.03125 352.023438 388.988281 352.453125 387.957031 C 352.878906 386.925781 353.328125 385.90625 353.808594 384.898438 C 354.285156 383.890625 354.785156 382.894531 355.3125 381.910156 C 355.835938 380.925781 356.386719 379.957031 356.960938 379 C 357.535156 378.042969 358.128906 377.101562 358.75 376.171875 C 359.371094 375.246094 360.011719 374.335938 360.675781 373.4375 C 361.339844 372.542969 362.027344 371.664062 362.734375 370.800781 C 363.441406 369.9375 364.171875 369.09375 364.921875 368.265625 C 365.667969 367.441406 366.4375 366.632812 367.226562 365.84375 C 368.015625 365.054688 368.824219 364.285156 369.648438 363.535156 C 370.476562 362.789062 371.320312 362.058594 372.183594 361.351562 C 373.046875 360.644531 373.925781 359.957031 374.820312 359.292969 C 375.714844 358.628906 376.628906 357.984375 377.554688 357.367188 C 378.484375 356.746094 379.425781 356.148438 380.382812 355.578125 C 381.339844 355.003906 382.308594 354.453125 383.292969 353.925781 C 384.277344 353.402344 385.273438 352.898438 386.28125 352.421875 C 387.289062 351.945312 388.308594 351.496094 389.339844 351.066406 C 390.371094 350.640625 391.410156 350.238281 392.460938 349.863281 C 393.511719 349.488281 394.570312 349.136719 395.636719 348.8125 C 396.707031 348.488281 397.78125 348.191406 398.863281 347.921875 C 399.945312 347.648438 401.03125 347.40625 402.128906 347.1875 C 403.222656 346.96875 404.320312 346.78125 405.421875 346.617188 C 406.527344 346.453125 407.632812 346.316406 408.742188 346.207031 C 409.855469 346.097656 410.964844 346.015625 412.082031 345.960938 C 413.195312 345.90625 414.308594 345.878906 415.425781 345.878906 C 416.539062 345.878906 417.65625 345.90625 418.769531 345.960938 C 419.882812 346.015625 420.996094 346.097656 422.105469 346.207031 C 423.214844 346.316406 424.324219 346.453125 425.425781 346.617188 C 426.53125 346.78125 427.628906 346.96875 428.722656 347.1875 C 429.816406 347.40625 430.90625 347.648438 431.988281 347.921875 C 433.070312 348.191406 434.144531 348.488281 435.210938 348.8125 C 436.277344 349.136719 437.335938 349.488281 438.386719 349.863281 C 439.4375 350.238281 440.480469 350.640625 441.507812 351.066406 C 442.539062 351.496094 443.558594 351.945312 444.566406 352.421875 C 445.574219 352.898438 446.570312 353.402344 447.554688 353.925781 C 448.539062 354.453125 449.511719 355.003906 450.46875 355.578125 C 451.421875 356.148438 452.367188 356.746094 453.292969 357.367188 C 454.222656 357.984375 455.132812 358.628906 456.027344 359.292969 C 456.925781 359.957031 457.804688 360.644531 458.667969 361.351562 C 459.527344 362.058594 460.371094 362.789062 461.199219 363.535156 C 462.027344 364.285156 462.832031 365.054688 463.621094 365.84375 C 464.410156 366.632812 465.179688 367.441406 465.929688 368.265625 C 466.679688 369.09375 467.40625 369.9375 468.113281 370.800781 C 468.824219 371.664062 469.507812 372.542969 470.171875 373.4375 C 470.835938 374.335938 471.480469 375.246094 472.097656 376.171875 C 472.71875 377.101562 473.316406 378.042969 473.890625 379 C 474.460938 379.957031 475.011719 380.925781 475.539062 381.910156 C 476.0625 382.894531 476.566406 383.890625 477.042969 384.898438 C 477.519531 385.90625 477.972656 386.925781 478.398438 387.957031 C 478.824219 388.988281 479.226562 390.03125 479.601562 391.078125 C 479.976562 392.128906 480.328125 393.1875 480.652344 394.257812 C 480.976562 395.324219 481.273438 396.398438 481.542969 397.480469 C 481.816406 398.5625 482.058594 399.652344 482.277344 400.746094 C 482.496094 401.839844 482.683594 402.9375 482.847656 404.042969 C 483.011719 405.144531 483.148438 406.253906 483.257812 407.363281 C 483.367188 408.472656 483.449219 409.585938 483.503906 410.699219 C 483.558594 411.8125 483.585938 412.929688 483.585938 414.042969 Z M 483.585938 414.042969 " fill-opacity="1" fill-rule="nonzero"/></svg>